<?xml version="1.0" encoding="utf-8"?>
<!-- Generator: Adobe Illustrator 16.0.3, SVG Export Plug-In . SVG Version: 6.00 Build 0)  -->
<!DOCTYPE svg PUBLIC "-//W3C//DTD SVG 1.1//EN" "http://www.w3.org/Graphics/SVG/1.1/DTD/svg11.dtd">
<svg version="1.1" id="Слой_1" xmlns="http://www.w3.org/2000/svg" xmlns:xlink="http://www.w3.org/1999/xlink" x="0px" y="0px"
	 width="48px" height="48px" viewBox="0 0 48 48" enable-background="new 0 0 48 48" xml:space="preserve">
<g>
	<polygon fill="#FF0000" points="34.727,6.212 47.046,18.905 25.848,26.426 22.975,14.622 	"/>
	<polygon fill="#0000FF" points="20.154,10.887 29.791,4.228 34.335,15.979 19.371,21.433 	"/>
	<polygon fill="#FBB03B" points="42.248,43.452 47.046,24.389 26.266,19.74 23.542,28.548 	"/>
	<polygon fill="#39B54A" points="7.045,33.633 34.519,45.434 38.384,31.021 10.805,26.426 	"/>
	<polygon fill="#666666" points="35.457,17.285 18.64,24.598 17.125,32.065 39.95,33.999 	"/>
	<path fill="#FFFFFF" d="M1.508,40H16.55l0.94-2.896l-5.013-3.236c0,0,0.104-1.633,1.253-1.136c1.149,0.495,5.078,3.899,9.812,4.264
		c0.814,0.055,2.385-0.618,2.385-0.618s-0.288-2.197,0.208-2.824s1.28-0.901,1.28-0.901s-0.784-0.638-0.627-0.898
		c0.156-0.262,1.567-0.602,1.567-0.602s-0.497-2.794,0.364-3.186c0.862-0.392,1.829-0.13,1.829-0.13s-0.313-1.516-0.889-2.142
		c-0.574-0.626-1.593-3.291-1.437-3.734c0.157-0.444,0.078-2.664,0.078-2.664s-2.063-1.175-4.334-1.253
		c0.392-1.489,1.175-1.802,2.351-1.567c1.175,0.235,2.532,1.384,2.532,1.384s0.392-5.17-1.802-7.834
		c-2.194-2.664-4.701-6.327-12.952-7.212C5.843,1.93,1.143,11.488,1.143,11.488S-2.722,22.352,4.59,30.604
		c0.732,1.253-0.888,5.272-0.888,5.272L1.508,40z"/>
</g>
</svg>
